<svg width="140" height="44" viewBox="0 0 140 44" fill="none" xmlns="http://www.w3.org/2000/svg">
<path d="M17.7971 39.3573C13.1902 39.3818 8.75651 37.5912 5.44379 34.3682C3.99078 32.9584 2.80022 31.2981 1.92847 29.466H3.14913C3.94308 30.9987 4.97862 32.3917 6.21545 33.5908C9.32345 36.6068 13.4786 38.2817 17.7954 38.2585C22.1122 38.2817 26.2673 36.6068 29.3753 33.5908C30.6134 32.392 31.6501 30.999 32.445 29.466H33.6657C32.7936 31.2982 31.6026 32.9585 30.1492 34.3682C26.8368 37.5909 22.4036 39.3815 17.7971 39.3573ZM3.14856 15.1789H1.92847C2.80042 13.3462 3.99137 11.6855 5.44492 10.2755C8.75736 7.0528 13.1906 5.2622 17.7971 5.28638C22.404 5.2619 26.8376 7.05253 30.1503 10.2755C31.6034 11.6847 32.7941 13.3444 33.6662 15.176H32.4461C31.6517 13.6431 30.6156 12.2501 29.3781 11.0512C26.2701 8.0352 22.115 6.36032 17.7982 6.38346C13.4801 6.36019 9.32379 8.03595 6.21545 11.0535C4.97783 12.2524 3.94152 13.6454 3.14687 15.1783L3.14856 15.1789Z" fill="#333333"/>
<path d="M17.7995 37.1593C15.7594 37.1642 13.7379 36.7682 11.8485 35.9935C10.0423 35.2552 8.39321 34.1758 6.99011 32.8135C5.60142 31.4728 4.48824 29.8702 3.71395 28.097C2.81264 26.0249 2.40899 23.7683 2.5357 21.5099C2.66242 19.2515 3.31594 17.055 4.4433 15.0983C5.68962 12.9472 7.44235 11.1377 9.54707 9.82926V9.96952C9.87197 10.0178 10.1788 10.0757 10.4592 10.1399C10.7245 10.1972 10.9667 10.3335 11.1541 10.5311C11.2411 10.6322 11.3004 10.7543 11.3262 10.8855C11.3709 11.0646 11.401 11.2471 11.4164 11.4312C11.4339 11.6299 11.4463 11.844 11.4531 12.0672C11.4599 12.2903 11.4615 12.5135 11.4615 12.7304V17.33C11.4615 17.6917 11.4587 18.05 11.4531 18.3941L11.4503 18.5514C11.4452 18.8353 11.4401 19.1034 11.4345 19.3464C11.4288 19.6354 11.426 19.8677 11.426 20.0375C11.426 20.2266 11.4198 20.4282 11.4074 20.6371C11.395 20.8461 11.3809 21.038 11.3623 21.2192C11.3471 21.3843 11.32 21.5481 11.281 21.7092C11.2572 21.8277 11.2079 21.9396 11.1366 22.0369C10.9647 22.2405 10.7396 22.3916 10.4868 22.473C10.2048 22.5712 9.91464 22.6442 9.61983 22.691V22.8728H13.5238C13.6068 22.8916 13.6877 22.9188 13.7652 22.954C13.9139 23.0218 14.053 23.1092 14.1787 23.214C14.2832 23.3008 14.3737 23.4035 14.4466 23.5184C14.5149 23.632 14.5595 23.7143 14.5933 23.7785C14.6678 23.9289 14.7298 24.0624 14.7823 24.176C14.8347 24.2895 14.8917 24.4287 14.9464 24.5735C15.0011 24.7183 15.0592 24.8773 15.1185 25.0277C15.1777 25.1782 15.242 25.3497 15.3339 25.6007C15.6096 26.3298 15.8854 27.0616 16.1614 27.796L16.2325 27.9857C16.4875 28.6656 16.7481 29.3619 17.0143 30.0748C17.2185 30.6195 17.4283 31.1798 17.6438 31.7556L17.9259 32.5131C18.2756 33.4467 18.6028 34.3206 18.9344 35.1854H19.1414L19.8996 33.4853C20.0778 32.9901 20.2696 32.4524 20.5031 31.7931C20.6915 31.261 20.8946 30.679 21.1236 30.0146C21.3205 29.4422 21.5297 28.8431 21.7441 28.2355C21.9658 27.6109 22.1576 27.0629 22.3302 26.5615C22.5778 27.2264 22.8153 27.8891 23.037 28.5302C23.2586 29.1713 23.4882 29.8363 23.7522 30.587C23.9976 31.2883 24.2599 32.0299 24.5278 32.7908C24.7907 33.5347 25.084 34.3405 25.3982 35.1854H25.4185C23.0861 36.4829 20.4643 37.1621 17.7995 37.1593ZM25.6227 35.0701L26.2956 33.5216C26.5151 32.8595 26.7531 32.1559 27.0024 31.4302C27.2517 30.7045 27.5061 29.9612 27.7521 29.2349C27.9929 28.5245 28.2394 27.8091 28.4854 27.1095C28.7313 26.4099 28.9434 25.7813 29.1233 25.2265C29.2362 24.8932 29.349 24.6104 29.4511 24.3849C29.5366 24.1933 29.6346 24.0076 29.7444 23.829C29.8169 23.7101 29.8974 23.5962 29.9853 23.4883C30.062 23.398 30.1088 23.3463 30.1409 23.3145C30.2474 23.2131 30.3663 23.1258 30.4946 23.0545C30.7181 22.9196 30.9686 22.8366 31.2279 22.8114V22.6382H27.4351V22.8114C27.5917 22.826 27.7471 22.8522 27.8999 22.8898C28.067 22.9283 28.229 22.9865 28.3827 23.063C28.5242 23.1326 28.6525 23.2266 28.7618 23.3407C28.8673 23.4563 28.9232 23.6091 28.9175 23.766C28.9175 23.8835 28.9056 24.0641 28.8825 24.3037C28.825 24.6988 28.7326 25.088 28.6066 25.4667C28.4797 25.8852 28.3376 26.3378 28.1847 26.8119L27.9974 27.3917L27.7194 28.252C27.5761 28.696 27.4238 29.1605 27.254 29.6665C27.0944 30.1435 26.9533 30.5546 26.8236 30.9243C26.6939 31.2939 26.5833 31.6154 26.4959 31.8788C26.4084 32.1423 26.3492 32.3104 26.3154 32.3899C26.2402 32.1874 26.1247 31.8701 25.969 31.4382L25.9273 31.3246C25.7372 30.7982 25.5369 30.2377 25.3322 29.6591C25.1178 29.0509 24.886 28.3996 24.6429 27.7239C24.3998 27.0481 24.1826 26.4292 23.988 25.8585C23.7968 25.298 23.6343 24.8074 23.5051 24.4008C23.4217 24.1725 23.3581 23.9373 23.315 23.6978C23.3147 23.6137 23.334 23.5306 23.3714 23.4553C23.4089 23.3801 23.4634 23.3147 23.5305 23.2646C23.6753 23.1483 23.8385 23.0574 24.0134 22.996C24.1863 22.9335 24.3654 22.8899 24.5476 22.8659C24.7399 22.8404 24.8544 22.8239 24.9182 22.8137V22.6405H19.5222V22.8307C19.7617 22.8369 19.9994 22.8751 20.229 22.9443C20.4046 22.9984 20.5704 23.0805 20.7203 23.1873C20.8385 23.2721 20.9429 23.3748 21.03 23.4917C21.0983 23.5848 21.1591 23.6834 21.2116 23.7864C21.3695 24.1169 21.5207 24.4639 21.6629 24.8188C21.7982 25.1646 21.95 25.5649 22.1277 26.0425C21.8761 26.8375 21.62 27.6103 21.3695 28.3423C21.1208 29.0651 20.8884 29.7312 20.6797 30.3207C20.471 30.9101 20.3006 31.3911 20.1624 31.7783C20.0366 32.1315 19.9424 32.3939 19.9041 32.4989C19.7777 32.1525 19.6147 31.7181 19.4043 31.1713C19.1866 30.6034 18.948 29.9788 18.7409 29.4359C18.5063 28.8198 18.2688 28.1867 18.0342 27.553C17.7696 26.8375 17.5637 26.2776 17.3877 25.7926C17.1954 25.2645 17.0363 24.8034 16.9133 24.4218C16.8259 24.1895 16.7649 23.948 16.7317 23.7018C16.723 23.5302 16.782 23.362 16.8959 23.2339C17.0041 23.1189 17.1365 23.0297 17.2834 22.9727C17.4226 22.9182 17.5667 22.8775 17.7138 22.8512C17.8106 22.8327 17.9086 22.8211 18.0071 22.8165V22.6433H14.8776C14.6553 22.6076 14.4405 22.5348 14.2419 22.4281C14.02 22.3183 13.8278 22.156 13.6817 21.9551C13.5539 21.7474 13.4852 21.5084 13.4832 21.264C13.4708 20.9852 13.4589 20.6491 13.4465 20.2641C13.4465 20.0591 13.4437 19.8666 13.4381 19.6917C13.4324 19.5168 13.429 19.3328 13.429 19.1187V17.4061H14.4043C14.7789 17.4061 15.1647 17.3907 15.5511 17.3601C15.9375 17.3294 16.3318 17.2846 16.7159 17.2244C17.0846 17.1674 17.4472 17.076 17.7989 16.9512C18.1345 16.825 18.4559 16.6636 18.7579 16.4697C19.0662 16.2736 19.3432 16.0314 19.5792 15.7514C19.8196 15.4627 20.0118 15.1367 20.1483 14.786C20.2968 14.3974 20.3703 13.9838 20.3649 13.5674C20.3805 12.899 20.1983 12.241 19.8415 11.677C19.5103 11.1616 19.0574 10.7369 18.5232 10.4408C17.9866 10.1404 17.3978 9.94632 16.7887 9.86901C16.0875 9.78506 15.3818 9.74543 14.6757 9.75033H13.8628C13.5774 9.75033 13.2491 9.75317 12.8605 9.75942C12.522 9.76566 12.1587 9.7685 11.7887 9.7685C11.4288 9.7685 11.0915 9.77134 10.7863 9.77702C10.4919 9.78327 10.2223 9.78611 9.9831 9.78611H9.61645C11.7219 8.50225 14.0961 7.73103 16.5499 7.53386C19.0037 7.33669 21.4694 7.71903 23.7505 8.65041C25.5567 9.38865 27.2058 10.4681 28.6089 11.8304C29.9974 13.1711 31.1104 14.7737 31.8845 16.5469C32.8024 18.657 33.2039 20.958 33.0554 23.2567C32.9069 25.5554 32.2127 27.7847 31.031 29.7573C29.7058 31.9601 27.8466 33.7879 25.6278 35.0696L25.6227 35.0701ZM13.4302 17.1517V14.8235C13.4302 14.2227 13.4336 13.6231 13.4392 13.0422C13.4448 12.451 13.4539 11.9309 13.4663 11.4965C13.4776 11.2239 13.4894 11.007 13.5018 10.8514C13.5142 10.6958 13.5261 10.5805 13.5385 10.4965C13.5475 10.4258 13.5626 10.3561 13.5836 10.2881C13.6022 10.2252 13.6162 10.1611 13.6253 10.0962C13.7096 10.084 13.8209 10.0689 13.9593 10.0507C14.1543 10.0293 14.3504 10.0202 14.5465 10.0235C14.8857 10.0228 15.2244 10.0471 15.5601 10.0962C16.0326 10.1627 16.4851 10.3321 16.8858 10.5927C17.2866 10.8533 17.6261 11.1987 17.8807 11.6049C18.2384 12.1628 18.4237 12.8149 18.4132 13.4788C18.4208 14.2132 18.2068 14.9326 17.7995 15.5418C17.3716 16.167 16.749 16.6309 16.03 16.8604C15.6393 16.9968 15.2321 17.0793 14.8195 17.1057C14.3919 17.1375 13.9243 17.1517 13.4302 17.1517Z" fill="#333333"/>
<path d="M40.6205 32.532C40.2064 32.0221 39.9996 31.564 40 31.1576C40.0004 30.7513 40.3425 30.2134 41.0262 29.5441C41.4241 29.1615 41.8457 28.9702 42.2912 28.9702C42.7367 28.9702 43.3573 29.3686 44.1529 30.1655C44.3756 30.4366 44.6939 30.6955 45.108 30.9422C45.5221 31.189 45.904 31.3124 46.2538 31.3126C47.7334 31.3126 48.4733 30.7072 48.4735 29.4963C48.4735 29.1299 48.2706 28.8232 47.8649 28.576C47.4592 28.3289 46.9542 28.1495 46.3499 28.0381C44.9816 27.7682 43.6619 27.2927 42.4354 26.6277C41.8303 26.2928 41.3254 25.7629 40.9205 25.0379C40.5156 24.3129 40.3128 23.4405 40.3119 22.4207C40.3119 21.0184 40.833 19.7953 41.8752 18.7513C42.9175 17.7072 44.3377 17.1853 46.1359 17.1855C47.0905 17.1855 47.9616 17.309 48.7492 17.5559C49.5367 17.8029 50.0818 18.0539 50.3843 18.309L50.9808 18.7631C51.4739 19.2249 51.7206 19.6153 51.7208 19.9344C51.721 20.2534 51.5295 20.6915 51.1464 21.2484C50.6052 22.0455 50.0483 22.444 49.4757 22.4438C49.1413 22.4438 48.7275 22.2844 48.2344 21.9658C48.1378 21.8923 48.0461 21.8124 47.9601 21.7267C47.8436 21.6152 47.7199 21.5114 47.5899 21.416C47.256 21.2089 46.8303 21.1053 46.3131 21.1053C45.7958 21.1053 45.3662 21.2288 45.0244 21.4757C44.6819 21.7231 44.5107 22.0657 44.5109 22.5035C44.5111 22.9413 44.714 23.2958 45.1195 23.5672C45.5253 23.8383 46.0303 24.0216 46.6345 24.117C47.3028 24.2267 47.9643 24.3744 48.6158 24.5593C49.2956 24.7455 49.9583 24.9893 50.5968 25.2882C51.2014 25.5752 51.7064 26.0732 52.1117 26.7824C52.517 27.4915 52.7199 28.364 52.7203 29.3999C52.7203 30.4361 52.5135 31.3486 52.0998 32.1376C51.6862 32.9265 51.1452 33.5361 50.4769 33.9662C49.1887 34.811 47.8128 35.2334 46.349 35.2334C45.6318 35.2374 44.9173 35.145 44.2247 34.9586C43.5566 34.7757 43.0155 34.5485 42.6014 34.2772C41.7581 33.7675 41.1694 33.2735 40.8352 32.7952L40.6205 32.532Z" fill="#333333"/>
<path d="M62.9611 26.1976C65.3956 28.5401 67.122 30.3009 68.1403 31.4802C68.6652 32.0699 68.9278 32.568 68.928 32.9743C68.9283 33.3807 68.6099 33.8587 67.973 34.4085C67.3362 34.9582 66.8151 35.233 66.4096 35.233C66.0041 35.233 65.5148 34.8984 64.9417 34.229L59.6905 28.2294V32.8916C59.6905 33.2737 59.6786 33.5527 59.6549 33.7283C59.6312 33.904 59.5556 34.1112 59.428 34.3498C59.2051 34.7799 58.5847 34.995 57.5666 34.9952C56.4523 34.9952 55.7999 34.6925 55.6093 34.0869C55.5138 33.8318 55.4661 33.425 55.4661 32.8665V19.5742C55.4661 19.2081 55.478 18.9332 55.502 18.7496C55.5259 18.566 55.6014 18.3549 55.7285 18.1163C55.9512 17.686 56.5718 17.4709 57.5903 17.4709C58.7037 17.4709 59.364 17.7656 59.5713 18.3551C59.651 18.6263 59.6907 19.0406 59.6905 19.5983V24.1655C61.8547 21.7274 63.6051 19.7274 64.9417 18.1655C65.4983 17.5124 65.9837 17.1858 66.3978 17.1855C66.8118 17.1853 67.3369 17.4602 67.973 18.0101C68.6097 18.5599 68.928 19.038 68.928 19.4446C68.928 19.8512 68.6894 20.3331 68.2121 20.8906C67.2899 21.9586 65.8577 23.4247 63.9155 25.2889L62.9611 26.1976Z" fill="#333333"/>
<path d="M71.9111 19.576C71.9111 19.2099 71.9231 18.935 71.947 18.7514C71.971 18.5678 72.0465 18.3567 72.1736 18.1181C72.3965 17.6878 73.017 17.4727 74.0354 17.4727C75.1492 17.4727 75.8096 17.7674 76.0166 18.3569C76.0959 18.6281 76.1356 19.0424 76.1359 19.6001V32.8917C76.1359 33.2739 76.1239 33.5528 76.1 33.7285C76.076 33.9042 76.0005 34.1113 75.8734 34.3499C75.6505 34.78 75.03 34.9952 74.0116 34.9954C72.8978 34.9954 72.2454 34.6926 72.0544 34.087C71.9589 33.832 71.9111 33.4252 71.9111 32.8666V19.576Z" fill="#333333"/>
<path d="M83.4629 31.4566H89.9551C90.4801 31.4566 90.862 31.5163 91.1009 31.6357C91.2151 31.6906 91.3166 31.7689 91.3988 31.8655C91.481 31.9621 91.542 32.0748 91.5781 32.1965C91.6576 32.4517 91.6973 32.7904 91.6973 33.2123C91.6973 33.6343 91.6576 33.9729 91.5781 34.2282C91.4984 34.4835 91.3631 34.6594 91.1723 34.756C90.87 34.9154 90.4562 34.9951 89.9311 34.9951H81.3387C80.2248 34.9951 79.5725 34.6923 79.3817 34.0867C79.286 33.8317 79.2382 33.4249 79.2382 32.8663V19.5741C79.2339 19.2987 79.2459 19.0234 79.2741 18.7495C79.2981 18.5664 79.3729 18.3537 79.501 18.1162C79.7236 17.6859 80.3442 17.4707 81.3627 17.4707C82.4761 17.4707 83.1364 17.7655 83.3437 18.355C83.4231 18.6274 83.4629 19.0423 83.4629 19.5994V31.4566Z" fill="#333333"/>
<path d="M98.6669 31.4566H105.159C105.684 31.4566 106.066 31.5163 106.305 31.6357C106.419 31.6906 106.52 31.7689 106.603 31.8655C106.685 31.962 106.746 32.0748 106.782 32.1965C106.861 32.4517 106.901 32.7904 106.901 33.2123C106.902 33.6343 106.862 33.9729 106.782 34.2282C106.702 34.4835 106.567 34.6594 106.376 34.756C106.074 34.9154 105.66 34.9951 105.135 34.9951H96.5426C95.4288 34.9951 94.7764 34.6923 94.5854 34.0867C94.4899 33.8317 94.4421 33.4249 94.4421 32.8663V19.5741C94.4421 19.2079 94.4541 18.9331 94.478 18.7495C94.502 18.5659 94.5775 18.3548 94.7046 18.1162C94.9273 17.6859 95.5478 17.4707 96.5664 17.4707C97.68 17.4707 98.3404 17.7655 98.5477 18.355C98.6269 18.6261 98.6666 19.0405 98.6669 19.5981V31.4566Z" fill="#333333"/>
<path d="M109.909 32.532C109.495 32.0221 109.288 31.564 109.288 31.1576C109.288 30.7513 109.63 30.2134 110.314 29.5441C110.712 29.1615 111.134 28.9702 111.579 28.9702C112.025 28.9702 112.646 29.3686 113.441 30.1655C113.664 30.4366 113.982 30.6955 114.396 30.9422C114.81 31.189 115.192 31.3124 115.54 31.3126C117.02 31.3126 117.76 30.7072 117.76 29.4963C117.76 29.1299 117.557 28.8232 117.151 28.576C116.746 28.3289 116.241 28.1495 115.636 28.0381C114.268 27.7682 112.948 27.2927 111.722 26.6277C111.117 26.2928 110.612 25.7629 110.207 25.0379C109.802 24.3129 109.599 23.4405 109.598 22.4207C109.598 21.0184 110.119 19.7953 111.162 18.7513C112.204 17.7072 113.624 17.1853 115.422 17.1855C116.377 17.1855 117.248 17.309 118.036 17.5559C118.823 17.8029 119.368 18.0539 119.67 18.309L120.267 18.7631C120.76 19.2249 121.007 19.6153 121.007 19.9344C121.008 20.2534 120.817 20.6915 120.434 21.2484C119.893 22.0455 119.336 22.444 118.763 22.4438C118.429 22.4438 118.016 22.2844 117.522 21.9658C117.425 21.8923 117.334 21.8124 117.248 21.7267C117.131 21.6152 117.008 21.5114 116.878 21.416C116.544 21.2089 116.118 21.1053 115.601 21.1053C115.084 21.1053 114.654 21.2288 114.312 21.4757C113.97 21.7231 113.798 22.0657 113.799 22.5035C113.799 22.9413 114.002 23.2958 114.407 23.5672C114.813 23.8383 115.318 24.0216 115.922 24.117C116.59 24.2267 117.252 24.3744 117.903 24.5593C118.583 24.7454 119.246 24.9893 119.885 25.2882C120.489 25.5752 120.994 26.0732 121.399 26.7824C121.805 27.4915 122.008 28.364 122.008 29.3999C122.008 30.4361 121.801 31.3486 121.387 32.1376C120.973 32.9265 120.432 33.5361 119.764 33.9662C118.477 34.811 117.101 35.2334 115.637 35.2334C114.919 35.2373 114.205 35.1449 113.512 34.9586C112.844 34.7755 112.303 34.5482 111.889 34.2769C111.046 33.7672 110.457 33.2732 110.123 32.7949L109.909 32.532Z" fill="#333333"/>
<path d="M62.1754 14.6449C63.7962 14.6449 65.1102 13.329 65.1102 11.7057C65.1102 10.0825 63.7962 8.7666 62.1754 8.7666C60.5546 8.7666 59.2407 10.0825 59.2407 11.7057C59.2407 13.329 60.5546 14.6449 62.1754 14.6449Z" fill="#F7871D"/>
<path d="M73.8586 14.6449C75.4794 14.6449 76.7933 13.329 76.7933 11.7057C76.7933 10.0825 75.4794 8.7666 73.8586 8.7666C72.2378 8.7666 70.9238 10.0825 70.9238 11.7057C70.9238 13.329 72.2378 14.6449 73.8586 14.6449Z" fill="#8DC63F"/>
</svg>
